<?xml version="1.0" encoding="UTF-8"?> <svg xmlns="http://www.w3.org/2000/svg" id="Слой_1" data-name="Слой 1" viewBox="0 0 323.56 113.78"> <defs> <style>.cls-1{fill:#d2f6fb;}.cls-2{fill:#1a1e34;}.cls-3{fill:#fcc2b8;}.cls-3,.cls-4{stroke:#1a1e34;stroke-linecap:round;stroke-linejoin:round;stroke-width:4px;}.cls-4{fill:#fff;}</style> </defs> <path class="cls-1" d="M30.39,91.83a2,2,0,0,1-1.73-3L70.08,17.4a2,2,0,0,1,1.73-1,2,2,0,0,1,1.73,1L115,88.82a2,2,0,0,1,0,2,2,2,0,0,1-1.73,1Z"></path> <path class="cls-2" d="M71.81,18.4l41.42,71.43H30.39L71.81,18.4m0-4a4,4,0,0,0-3.46,2L26.93,87.82a4,4,0,0,0,3.46,6h82.84a4,4,0,0,0,3.46-6L75.27,16.4a4,4,0,0,0-3.46-2Z"></path> <polygon class="cls-3" points="114.07 95.38 30.62 95.38 12.62 67.11 132.07 67.11 114.07 95.38"></polygon> <path class="cls-4" d="M21.33,67.11,39.44,95.37"></path> <path class="cls-4" d="M122.21,67.11l-18,28.26"></path> <path class="cls-2" d="M156.05,52.08h16.72a.52.52,0,0,1,.52.52v2.93a.51.51,0,0,0,.51.52h4a.52.52,0,0,0,.52-.52V48.09a.52.52,0,0,0-.52-.52h-2.92a.51.51,0,0,1-.47-.3l-9.51-20.68a.51.51,0,0,0-.94,0l-9.51,20.68a.52.52,0,0,1-.47.3H151a.52.52,0,0,0-.52.52v7.44a.52.52,0,0,0,.52.52h4a.52.52,0,0,0,.52-.52V52.6A.52.52,0,0,1,156.05,52.08Zm8.85-15.46,3.79,10.25a.52.52,0,0,1-.49.7h-7.58a.52.52,0,0,1-.49-.7l3.79-10.25A.52.52,0,0,1,164.9,36.62Z"></path> <path class="cls-2" d="M201.15,52.08h3.94a.52.52,0,0,0,.52-.52V26.75a.52.52,0,0,0-.87-.38l-16.22,15a.52.52,0,0,1-.88-.38V27.34a.52.52,0,0,0-.51-.52h-3.94a.52.52,0,0,0-.52.52V52.15a.52.52,0,0,0,.87.39l16.22-15a.52.52,0,0,1,.87.38V51.56A.52.52,0,0,0,201.15,52.08Z"></path> <path class="cls-2" d="M229.43,49.09a6.75,6.75,0,0,0,1.11-3.83,5.72,5.72,0,0,0-1.49-4.13,8.84,8.84,0,0,0-4-2.28,11.15,11.15,0,0,0,1.67-.77A6.72,6.72,0,0,0,229,36a4.69,4.69,0,0,0,.83-2.76,5.91,5.91,0,0,0-1.08-3.46,7.5,7.5,0,0,0-3.12-2.49,12,12,0,0,0-5-.94,11.83,11.83,0,0,0-5,1A7.39,7.39,0,0,0,212.38,30a6.67,6.67,0,0,0-1.08,3.3.51.51,0,0,0,.52.54h3.8a.51.51,0,0,0,.49-.46,2.72,2.72,0,0,1,.53-1.22A3.59,3.59,0,0,1,218.2,31a6.22,6.22,0,0,1,2.39-.42,5.73,5.73,0,0,1,2.25.4,2.94,2.94,0,0,1,1.37,1.1,3,3,0,0,1,.45,1.64,2.85,2.85,0,0,1-.63,1.79,4.14,4.14,0,0,1-1.86,1.28,8.67,8.67,0,0,1-3.06.47v3.53a11.13,11.13,0,0,1,3.46.47,4.36,4.36,0,0,1,2.11,1.36,3.21,3.21,0,0,1,.71,2.07,3.14,3.14,0,0,1-1.27,2.69,6.07,6.07,0,0,1-3.61.92,7.23,7.23,0,0,1-2.68-.45A4,4,0,0,1,216,46.56a3.64,3.64,0,0,1-.67-1.63.53.53,0,0,0-.52-.46h-4.11a.52.52,0,0,0-.53.54,7.47,7.47,0,0,0,.63,2.54,7.68,7.68,0,0,0,1.93,2.6A9.3,9.3,0,0,0,216,51.94a14.93,14.93,0,0,0,4.64.65,14.26,14.26,0,0,0,5.43-.92A7.32,7.32,0,0,0,229.43,49.09Z"></path> <path class="cls-2" d="M243.61,26.32l-12,25a.52.52,0,0,0,.47.74h4.65a.52.52,0,0,0,.47-.3l2.36-5.13a.52.52,0,0,1,.47-.31h8a.53.53,0,0,1,.48.3l2.38,5.14a.52.52,0,0,0,.47.3h4.69a.52.52,0,0,0,.47-.74l-12-25A.52.52,0,0,0,243.61,26.32Zm2.81,16h-4.71a.52.52,0,0,1-.48-.73l2.37-5.43a.52.52,0,0,1,1,0l2.34,5.43A.52.52,0,0,1,246.42,42.27Z"></path> <path class="cls-2" d="M268.81,23.61a7.47,7.47,0,0,0,6.4,0,5,5,0,0,0,2.64-4,.51.51,0,0,0-.51-.55h-2.27a.49.49,0,0,0-.5.4,3,3,0,0,1-.24.72,2.2,2.2,0,0,1-.85.89,3,3,0,0,1-1.48.34,2.84,2.84,0,0,1-1.44-.34,2.29,2.29,0,0,1-1.12-1.62.52.52,0,0,0-.51-.39H266.7a.51.51,0,0,0-.52.55,5.12,5.12,0,0,0,.64,2.05A5,5,0,0,0,268.81,23.61Z"></path> <path class="cls-2" d="M278.11,52.08h3.94a.52.52,0,0,0,.52-.52V26.75a.52.52,0,0,0-.87-.38l-16.22,15a.52.52,0,0,1-.88-.38V27.34a.52.52,0,0,0-.52-.52h-3.94a.53.53,0,0,0-.52.52V52.15a.53.53,0,0,0,.88.39l16.22-15a.52.52,0,0,1,.87.38V51.56A.52.52,0,0,0,278.11,52.08Z"></path> <path class="cls-2" d="M305,27.34v8.45a.52.52,0,0,1-.52.52H293.73a.51.51,0,0,1-.51-.52V27.34a.53.53,0,0,0-.52-.52h-4.12a.52.52,0,0,0-.52.52V51.56a.52.52,0,0,0,.52.52h4.12a.52.52,0,0,0,.52-.52V41.49a.51.51,0,0,1,.51-.52h10.76a.52.52,0,0,1,.52.52V51.56a.52.52,0,0,0,.52.52h4.12a.52.52,0,0,0,.52-.52V27.34a.52.52,0,0,0-.52-.52h-4.12A.53.53,0,0,0,305,27.34Z"></path> <path class="cls-2" d="M149.94,90.08h4.65a.53.53,0,0,0,.47-.3l2.36-5.13a.51.51,0,0,1,.47-.31h8a.52.52,0,0,1,.47.3l2.38,5.14a.53.53,0,0,0,.47.3h4.69a.51.51,0,0,0,.47-.74l-12-25a.52.52,0,0,0-.94,0l-12,25A.51.51,0,0,0,149.94,90.08Zm14.32-9.81h-4.71a.52.52,0,0,1-.47-.73l2.36-5.43a.52.52,0,0,1,.95,0l2.35,5.43A.52.52,0,0,1,164.26,80.27Z"></path> <path class="cls-2" d="M188.4,64.32a14.82,14.82,0,0,0-5.35.94,12.2,12.2,0,0,0-7.11,6.87,14.65,14.65,0,0,0,0,10.64,12.33,12.33,0,0,0,2.81,4.17,12.53,12.53,0,0,0,4.3,2.71,15,15,0,0,0,5.35.94,13.07,13.07,0,0,0,4.6-.69,12.6,12.6,0,0,0,3.17-1.75.55.55,0,0,0,.21-.43v-4.3a.52.52,0,0,0-.86-.39,11,11,0,0,1-1.11.88,9.69,9.69,0,0,1-5.75,1.73,8.33,8.33,0,0,1-4-1,7.76,7.76,0,0,1-3-2.85,9,9,0,0,1,0-8.71,7.88,7.88,0,0,1,3-2.84,8.33,8.33,0,0,1,4-1,10.23,10.23,0,0,1,3.21.47A9.88,9.88,0,0,1,194.41,71a11,11,0,0,1,1.11.88.52.52,0,0,0,.86-.39v-4.3a.55.55,0,0,0-.21-.43A12.6,12.6,0,0,0,193,65,13.33,13.33,0,0,0,188.4,64.32Z"></path> <path class="cls-2" d="M213.51,64.32a14.82,14.82,0,0,0-5.35.94,12.2,12.2,0,0,0-7.11,6.87,14.79,14.79,0,0,0,0,10.64,12.33,12.33,0,0,0,2.81,4.17,12.53,12.53,0,0,0,4.3,2.71,15,15,0,0,0,5.35.94,13.17,13.17,0,0,0,4.61-.69,12.71,12.71,0,0,0,3.16-1.75.55.55,0,0,0,.21-.43v-4.3a.52.52,0,0,0-.86-.39,11,11,0,0,1-1.11.88A9.72,9.72,0,0,1,217,85.17a10,10,0,0,1-3.21.47,8.33,8.33,0,0,1-4-1,7.73,7.73,0,0,1-3-2.85,8.89,8.89,0,0,1,0-8.71,7.85,7.85,0,0,1,3-2.84,8.33,8.33,0,0,1,4-1,10.23,10.23,0,0,1,3.21.47A9.72,9.72,0,0,1,219.52,71a11,11,0,0,1,1.11.88.52.52,0,0,0,.86-.39v-4.3a.55.55,0,0,0-.21-.43A12.71,12.71,0,0,0,218.12,65,13.43,13.43,0,0,0,213.51,64.32Z"></path> <path class="cls-2" d="M231.07,64.82h-3.94a.52.52,0,0,0-.52.52V90.15a.52.52,0,0,0,.87.39l16.23-15a.52.52,0,0,1,.87.38V89.56a.52.52,0,0,0,.52.52H249a.52.52,0,0,0,.52-.52V64.75a.52.52,0,0,0-.87-.38l-16.23,15a.52.52,0,0,1-.87-.38V65.34A.52.52,0,0,0,231.07,64.82Z"></path> <path class="cls-2" d="M267.06,64.32a14.87,14.87,0,0,0-5.36.94,12.28,12.28,0,0,0-7.11,6.87,14.79,14.79,0,0,0,0,10.64,12.21,12.21,0,0,0,2.82,4.17,12.39,12.39,0,0,0,4.29,2.71,15.09,15.09,0,0,0,5.36.94,13.15,13.15,0,0,0,4.6-.69,12.54,12.54,0,0,0,3.16-1.75.55.55,0,0,0,.21-.43v-4.3a.51.51,0,0,0-.85-.39,12.27,12.27,0,0,1-1.11.88,9.79,9.79,0,0,1-2.55,1.26,10,10,0,0,1-3.21.47,8.29,8.29,0,0,1-4-1,7.76,7.76,0,0,1-3-2.85,8.89,8.89,0,0,1,0-8.71,7.88,7.88,0,0,1,3-2.84,8.29,8.29,0,0,1,4-1,10.23,10.23,0,0,1,3.21.47A9.79,9.79,0,0,1,273.07,71a13.84,13.84,0,0,1,1.11.88.51.51,0,0,0,.85-.39v-4.3a.55.55,0,0,0-.21-.43A12.54,12.54,0,0,0,271.66,65,13.41,13.41,0,0,0,267.06,64.32Z"></path> <path class="cls-2" d="M277.07,69.48h5.74a.52.52,0,0,1,.52.52V89.56a.52.52,0,0,0,.52.52H288a.52.52,0,0,0,.52-.52V70a.52.52,0,0,1,.52-.52h5.78a.52.52,0,0,0,.52-.52V65.34a.52.52,0,0,0-.52-.52H277.07a.52.52,0,0,0-.52.52V69A.52.52,0,0,0,277.07,69.48Z"></path> </svg> 