<svg width="173" height="59" viewBox="0 0 173 59" fill="none" xmlns="http://www.w3.org/2000/svg">
<g clip-path="url(#clip0_10_22777)">
<path d="M59.4155 38.6842V19.7417" stroke="url(#paint0_linear_10_22777)" stroke-width="2" stroke-miterlimit="16" stroke-linecap="round" stroke-linejoin="round" stroke-dasharray="4 6 9 6"/>
<path d="M9.15527 38.6842V19.7417" stroke="url(#paint1_linear_10_22777)" stroke-width="2" stroke-miterlimit="16" stroke-linecap="round" stroke-linejoin="round" stroke-dasharray="4 6 9 6"/>
<path d="M0.62915 34.8958V23.8748" stroke="url(#paint2_linear_10_22777)" stroke-width="2" stroke-miterlimit="16" stroke-linecap="round" stroke-linejoin="round" stroke-dasharray="4 6 9 6"/>
<path d="M67.9419 34.8958V23.8748" stroke="url(#paint3_linear_10_22777)" stroke-width="2" stroke-miterlimit="16" stroke-linecap="round" stroke-linejoin="round" stroke-dasharray="4 6 9 6"/>
<path d="M51.3381 42.4755V16.3005" stroke="url(#paint4_linear_10_22777)" stroke-width="2" stroke-miterlimit="16" stroke-linecap="round" stroke-linejoin="round" stroke-dasharray="4 6 9 6"/>
<path d="M25.7593 47.641V11.1338" stroke="url(#paint5_linear_10_22777)" stroke-width="2" stroke-miterlimit="16" stroke-linecap="round" stroke-linejoin="round" stroke-dasharray="4 6 9 6"/>
<path d="M17.6819 42.4755V16.3005" stroke="url(#paint6_linear_10_22777)" stroke-width="2" stroke-miterlimit="16" stroke-linecap="round" stroke-linejoin="round" stroke-dasharray="4 6 9 6"/>
<path d="M42.8118 47.641V11.1338" stroke="url(#paint7_linear_10_22777)" stroke-width="2" stroke-miterlimit="16" stroke-linecap="round" stroke-linejoin="round" stroke-dasharray="4 6 9 6"/>
<path d="M34.2854 51.773V7" stroke="url(#paint8_linear_10_22777)" stroke-width="2" stroke-miterlimit="16" stroke-linecap="round" stroke-linejoin="round" stroke-dasharray="4 6 9 6"/>
<path d="M59.4155 38.6842V19.7417" stroke="white" stroke-opacity="0.73" stroke-miterlimit="16" stroke-linecap="round" stroke-linejoin="round" stroke-dasharray="4 6 9 6"/>
<path d="M9.15527 38.6842V19.7417" stroke="white" stroke-opacity="0.73" stroke-miterlimit="16" stroke-linecap="round" stroke-linejoin="round" stroke-dasharray="4 6 9 6"/>
<path d="M0.62915 34.8958V23.8748" stroke="white" stroke-opacity="0.73" stroke-miterlimit="16" stroke-linecap="round" stroke-linejoin="round" stroke-dasharray="4 6 9 6"/>
<path d="M67.9419 34.8958V23.8748" stroke="white" stroke-opacity="0.73" stroke-miterlimit="16" stroke-linecap="round" stroke-linejoin="round" stroke-dasharray="4 6 9 6"/>
<path d="M51.3381 42.4755V16.3005" stroke="white" stroke-opacity="0.73" stroke-miterlimit="16" stroke-linecap="round" stroke-linejoin="round" stroke-dasharray="4 6 9 6"/>
<path d="M25.7593 47.641V11.1338" stroke="white" stroke-opacity="0.73" stroke-miterlimit="16" stroke-linecap="round" stroke-linejoin="round" stroke-dasharray="4 6 9 6"/>
<path d="M17.6819 42.4755V16.3005" stroke="white" stroke-opacity="0.73" stroke-miterlimit="16" stroke-linecap="round" stroke-linejoin="round" stroke-dasharray="4 6 9 6"/>
<path d="M42.8118 47.641V11.1338" stroke="white" stroke-opacity="0.73" stroke-miterlimit="16" stroke-linecap="round" stroke-linejoin="round" stroke-dasharray="4 6 9 6"/>
<path d="M34.2854 51.773V7" stroke="white" stroke-opacity="0.73" stroke-miterlimit="16" stroke-linecap="round" stroke-linejoin="round" stroke-dasharray="4 6 9 6"/>
<g filter="url(#filter0_d_10_22777)">
<path d="M103.811 25.2934L104.1 25.4179V25.4166L103.811 25.2934ZM100.865 28.2196L100.741 27.931L100.74 27.9316L100.865 28.2196ZM81.8749 28.6511H81.5604V28.965H81.8749V28.6511ZM81.8749 25.8867V25.5729H81.5604V25.8867H81.8749ZM100.662 25.0776L100.439 24.8557L100.436 24.8598L100.662 25.0776ZM101.257 24.2012L101.545 24.3257L101.547 24.3229L101.257 24.2012ZM100.662 21.1805L100.436 21.3984L100.439 21.4024L100.662 21.1805ZM83.4973 18.7668L83.2728 18.9867L83.2765 18.9906L83.4973 18.7668ZM82.3077 17.0002L82.0184 17.1234L82.0196 17.1266L82.3077 17.0002ZM82.3077 12.6985L82.0196 12.5721L82.0184 12.5754L82.3077 12.6985ZM85.2676 9.75884L85.3909 10.0475L85.3941 10.0461L85.2676 9.75884ZM102.865 9.31383H103.18V9H102.865V9.31383ZM102.865 12.0782V12.3921H103.18V12.0782H102.865ZM86.3352 12.294L86.2131 12.0047L86.2106 12.0059L86.3352 12.294ZM84.8618 13.7773L85.1506 13.9019L85.1519 13.8991L84.8618 13.7773ZM84.8618 15.9215L84.5725 16.0432L84.5737 16.046L84.8618 15.9215ZM86.3352 17.3912L86.2106 17.6793L86.2131 17.6805L86.3352 17.3912ZM100.865 18.052L100.736 18.3387L100.741 18.3407L100.865 18.052ZM102.622 19.2387L102.397 19.4586L102.402 19.4626L102.622 19.2387ZM103.811 20.9917L103.522 21.1149L103.523 21.1163L103.811 20.9917ZM103.929 23.1223C103.929 23.8555 103.792 24.537 103.522 25.1703L104.1 25.4166C104.406 24.7013 104.558 23.9355 104.558 23.1223H103.929ZM103.523 25.1688C103.25 25.7984 102.875 26.3496 102.399 26.8245L102.844 27.2683C103.377 26.7364 103.796 26.1189 104.1 25.4179L103.523 25.1688ZM102.399 26.8245C101.933 27.2892 101.382 27.6582 100.741 27.931L100.988 28.5083C101.699 28.2056 102.318 27.7925 102.844 27.2683L102.399 26.8245ZM100.74 27.9316C100.115 28.2014 99.441 28.3373 98.7157 28.3373V28.965C99.5222 28.965 100.281 28.8133 100.989 28.5077L100.74 27.9316ZM98.7157 28.3373H81.8749V28.965H98.7157V28.3373ZM82.1895 28.6511V25.8867H81.5604V28.6511H82.1895ZM81.8749 26.2006H98.7157V25.5729H81.8749V26.2006ZM98.7157 26.2006C99.1428 26.2006 99.5461 26.121 99.9217 25.959L99.6719 25.3829C99.3806 25.5086 99.0629 25.5729 98.7157 25.5729V26.2006ZM99.9217 25.959C100.292 25.7993 100.615 25.5782 100.889 25.2955L100.436 24.8598C100.222 25.0806 99.9688 25.2549 99.6719 25.3829L99.9217 25.959ZM100.884 25.2996C101.165 25.0193 101.386 24.694 101.545 24.3257L100.968 24.0766C100.839 24.3735 100.663 24.6325 100.439 24.8557L100.884 25.2996ZM101.547 24.3229C101.707 23.942 101.788 23.5409 101.788 23.1223H101.158C101.158 23.4589 101.094 23.777 100.967 24.0793L101.547 24.3229ZM101.788 23.1223C101.788 22.7038 101.707 22.3061 101.545 21.9325L100.968 22.1816C101.094 22.4733 101.158 22.7858 101.158 23.1223H101.788ZM101.545 21.9325C101.386 21.5642 101.165 21.2389 100.884 20.9586L100.439 21.4024C100.663 21.6256 100.839 21.8847 100.968 22.1816L101.545 21.9325ZM100.889 20.9627C100.615 20.68 100.292 20.4589 99.9217 20.2991L99.6719 20.8753C99.9688 21.0032 100.222 21.1777 100.436 21.3984L100.889 20.9627ZM99.9217 20.2991C99.5461 20.1372 99.1428 20.0576 98.7157 20.0576V20.6853C99.0629 20.6853 99.3806 20.7495 99.6719 20.8753L99.9217 20.2991ZM98.7157 20.0576H87.4166V20.6853H98.7157V20.0576ZM87.4166 20.0576C86.7007 20.0576 86.0269 19.9218 85.3909 19.6513L85.1443 20.2286C85.8602 20.5334 86.6189 20.6853 87.4166 20.6853V20.0576ZM85.3909 19.6513C84.7499 19.3784 84.1931 19.0088 83.7175 18.5428L83.2765 18.9906C83.8106 19.5135 84.4334 19.9261 85.1443 20.2286L85.3909 19.6513ZM83.7213 18.5468C83.2539 18.0716 82.8783 17.5149 82.5959 16.8738L82.0196 17.1266C82.3316 17.8341 82.7494 18.455 83.2728 18.9867L83.7213 18.5468ZM82.5971 16.8771C82.326 16.2434 82.1895 15.5663 82.1895 14.8426H81.5604C81.5604 15.6473 81.7126 16.4085 82.0184 17.1234L82.5971 16.8771ZM82.1895 14.8426C82.1895 14.1285 82.326 13.4558 82.5971 12.8217L82.0184 12.5754C81.7126 13.2897 81.5604 14.0464 81.5604 14.8426H82.1895ZM82.5959 12.825C82.8783 12.1844 83.2533 11.6329 83.7194 11.1674L83.2746 10.7236C82.75 11.247 82.3323 11.8642 82.0196 12.5721L82.5959 12.825ZM83.7194 11.1674C84.195 10.6932 84.7511 10.3199 85.3909 10.0475L85.1443 9.47018C84.4328 9.77309 83.8087 10.191 83.2746 10.7236L83.7194 11.1674ZM85.3941 10.0461C86.0294 9.76738 86.7019 9.62766 87.4166 9.62766V9C86.617 9 85.8577 9.15692 85.1412 9.47156L85.3941 10.0461ZM87.4166 9.62766H102.865V9H87.4166V9.62766ZM102.551 9.31383V12.0782H103.18V9.31383H102.551ZM102.865 11.7644H87.4166V12.3921H102.865V11.7644ZM87.4166 11.7644C86.997 11.7644 86.595 11.8444 86.2131 12.0047L86.4572 12.5832C86.7604 12.456 87.0794 12.3921 87.4166 12.3921V11.7644ZM86.2106 12.0059C85.8413 12.1652 85.5155 12.3852 85.2343 12.6654L85.679 13.1092C85.903 12.886 86.1628 12.7105 86.4604 12.5821L86.2106 12.0059ZM85.2343 12.6654C84.9524 12.947 84.7316 13.2781 84.5725 13.6555L85.1519 13.8991C85.2808 13.5933 85.457 13.331 85.679 13.1092L85.2343 12.6654ZM84.5737 13.6528C84.4114 14.0264 84.3315 14.424 84.3315 14.8426H84.9606C84.9606 14.5061 85.0241 14.1936 85.1506 13.9019L84.5737 13.6528ZM84.3315 14.8426C84.3315 15.2612 84.4114 15.6623 84.5725 16.0432L85.1519 15.7996C85.0241 15.4973 84.9606 15.1792 84.9606 14.8426H84.3315ZM84.5737 16.046C84.7329 16.4143 84.9537 16.7396 85.2343 17.0199L85.679 16.576C85.4557 16.3528 85.2796 16.0938 85.1506 15.7969L84.5737 16.046ZM85.2343 17.0199C85.5155 17.3 85.8413 17.52 86.2106 17.6793L86.4604 17.1032C86.1628 16.9748 85.903 16.7992 85.679 16.576L85.2343 17.0199ZM86.2131 17.6805C86.595 17.8409 86.997 17.9209 87.4166 17.9209V17.2932C87.0794 17.2932 86.7604 17.2293 86.4572 17.102L86.2131 17.6805ZM87.4166 17.9209H98.7157V17.2932H87.4166V17.9209ZM98.7157 17.9209C99.4398 17.9209 100.112 18.0609 100.736 18.3387L100.993 17.7654C100.284 17.4499 99.5234 17.2932 98.7157 17.2932V17.9209ZM100.741 18.3407C101.381 18.6129 101.932 18.9856 102.397 19.4586L102.846 19.0188C102.32 18.4849 101.7 18.0665 100.988 17.7634L100.741 18.3407ZM102.402 19.4626C102.875 19.9272 103.249 20.4769 103.522 21.1149L104.1 20.8686C103.796 20.1581 103.377 19.5391 102.842 19.0148L102.402 19.4626ZM103.523 21.1163C103.793 21.7405 103.929 22.4082 103.929 23.1223H104.558C104.558 22.3262 104.406 21.5734 104.1 20.8672L103.523 21.1163ZM120.962 28.0443L121.087 28.3325L121.089 28.3315L120.962 28.0443ZM118.016 28.6511V28.965H118.019L118.016 28.6511ZM113.759 28.6511L113.756 28.965H113.759V28.6511ZM110.812 28.0443L110.685 28.3315L110.687 28.3325L110.812 28.0443ZM108.406 26.4127L108.181 26.6316L108.184 26.6345L108.406 26.4127ZM106.798 18.1195L107.087 18.2437V18.2427L106.798 18.1195ZM110.812 14.074L110.937 14.3622L110.939 14.3611L110.812 14.074ZM123.368 15.7057L123.143 15.9254L123.146 15.9276L123.368 15.7057ZM124.544 17.2429L124.271 17.3987L124.272 17.4005L124.544 17.2429ZM121.408 17.6609L121.184 17.8806L121.186 17.8829L121.408 17.6609ZM119.881 16.6226L119.751 16.9085L119.757 16.9108L119.881 16.6226ZM118.016 16.2181L118.02 15.9043H118.016V16.2181ZM113.759 16.2181V15.9043L113.754 15.9043L113.759 16.2181ZM111.88 16.6226L112.006 16.9101L112.008 16.9093L111.88 16.6226ZM110.366 17.6609L110.589 17.8829L110.591 17.8806L110.366 17.6609ZM109.339 19.1848L109.05 19.0606L109.049 19.0644L109.339 19.1848ZM109.339 22.9335L109.049 23.0539L109.05 23.0577L109.339 22.9335ZM110.366 24.4708L110.141 24.6905L110.144 24.6927L110.366 24.4708ZM111.88 25.5091L111.75 25.795L111.755 25.7974L111.88 25.5091ZM119.881 25.5091L120.007 25.7967L120.009 25.7958L119.881 25.5091ZM121.408 24.4708L121.631 24.6927L121.633 24.6904L121.408 24.4708ZM125.256 21.0592C125.256 22.0612 125.066 22.9986 124.688 23.8745L125.265 24.1231C125.68 23.1652 125.885 22.1428 125.885 21.0592H125.256ZM124.688 23.8745C124.306 24.7567 123.787 25.5285 123.131 26.1922L123.579 26.6331C124.291 25.9124 124.854 25.075 125.265 24.1231L124.688 23.8745ZM123.131 26.1922C122.484 26.8461 121.72 27.3679 120.835 27.7572L121.089 28.3315C122.043 27.9117 122.874 27.3457 123.579 26.6331L123.131 26.1922ZM120.838 27.7562C119.959 28.1344 119.018 28.3287 118.013 28.3373L118.019 28.965C119.104 28.9556 120.127 28.7454 121.087 28.3325L120.838 27.7562ZM118.016 28.3373H113.759V28.965H118.016V28.3373ZM113.761 28.3373C112.756 28.3287 111.816 28.1344 110.937 27.7562L110.687 28.3325C111.647 28.7454 112.671 28.9556 113.756 28.965L113.761 28.3373ZM110.939 27.7572C110.054 27.3677 109.285 26.8455 108.629 26.1907L108.184 26.6345C108.898 27.3462 109.732 27.9118 110.685 28.3315L110.939 27.7572ZM108.631 26.1937C107.983 25.5298 107.469 24.7576 107.087 23.8745L106.509 24.1231C106.92 25.0741 107.478 25.911 108.181 26.6316L108.631 26.1937ZM107.087 23.8745C106.708 22.9986 106.518 22.0612 106.518 21.0592H105.889C105.889 22.1428 106.095 23.1652 106.509 24.1231L107.087 23.8745ZM106.518 21.0592C106.518 20.0572 106.708 19.1198 107.087 18.2437L106.509 17.9952C106.095 18.9531 105.889 19.9755 105.889 21.0592H106.518ZM107.087 18.2427C107.469 17.3512 107.983 16.58 108.63 15.9261L108.182 15.4852C107.478 16.1978 106.92 17.0358 106.509 17.9962L107.087 18.2427ZM108.63 15.9261C109.286 15.2634 110.054 14.7421 110.937 14.3622L110.687 13.7858C109.732 14.197 108.896 14.7635 108.182 15.4852L108.63 15.9261ZM110.939 14.3611C111.817 13.9749 112.755 13.781 113.759 13.781V13.1533C112.671 13.1533 111.646 13.364 110.685 13.7868L110.939 14.3611ZM113.759 13.781H118.016V13.1533H113.759V13.781ZM118.016 13.781C118.682 13.781 119.325 13.8673 119.946 14.0392L120.114 13.4345C119.437 13.2469 118.737 13.1533 118.016 13.1533V13.781ZM119.946 14.0392C120.568 14.2118 121.146 14.4572 121.68 14.775L122.002 14.236C121.418 13.8886 120.789 13.6215 120.114 13.4345L119.946 14.0392ZM121.68 14.775C122.215 15.0937 122.703 15.477 123.143 15.9254L123.592 15.4859C123.114 14.9994 122.584 14.5826 122.002 14.236L121.68 14.775ZM123.146 15.9276C123.586 16.3662 123.96 16.8564 124.271 17.3987L124.817 17.0872C124.479 16.4968 124.07 15.9621 123.591 15.4837L123.146 15.9276ZM124.272 17.4005C124.583 17.9339 124.824 18.5113 124.998 19.1339L125.604 18.9659C125.417 18.294 125.154 17.6668 124.816 17.0854L124.272 17.4005ZM124.998 19.1339C125.17 19.753 125.256 20.3945 125.256 21.0592H125.885C125.885 20.3394 125.792 19.6413 125.604 18.9659L124.998 19.1339ZM123.129 21.0592C123.129 20.3532 122.994 19.686 122.724 19.0606L122.147 19.3089C122.381 19.8523 122.5 20.4346 122.5 21.0592H123.129ZM122.724 19.0606C122.457 18.4414 122.093 17.8998 121.631 17.4391L121.186 17.8829C121.589 18.2851 121.91 18.7595 122.147 19.3089L122.724 19.0606ZM121.633 17.4413C121.171 16.9708 120.628 16.6018 120.005 16.3344L119.757 16.9108C120.306 17.147 120.781 17.4701 121.184 17.8806L121.633 17.4413ZM120.011 16.3368C119.393 16.0573 118.728 15.9138 118.02 15.9043L118.012 16.5319C118.638 16.5403 119.216 16.6665 119.751 16.9085L120.011 16.3368ZM118.016 15.9043H113.759V16.5319H118.016V15.9043ZM113.754 15.9043C113.046 15.9139 112.378 16.0573 111.752 16.336L112.008 16.9093C112.553 16.6666 113.137 16.5403 113.763 16.5319L113.754 15.9043ZM111.754 16.3351C111.141 16.6027 110.602 16.9716 110.141 17.4413L110.591 17.8806C110.995 17.4693 111.465 17.1461 112.006 16.9101L111.754 16.3351ZM110.144 17.4391C109.682 17.8998 109.317 18.4413 109.05 19.0606L109.628 19.3089C109.865 18.7595 110.185 18.2851 110.589 17.8829L110.144 17.4391ZM109.049 19.0644C108.789 19.6888 108.66 20.3547 108.66 21.0592H109.289C109.289 20.4331 109.403 19.8494 109.629 19.3052L109.049 19.0644ZM108.66 21.0592C108.66 21.7636 108.789 22.4295 109.049 23.0539L109.629 22.8132C109.403 22.2689 109.289 21.6853 109.289 21.0592H108.66ZM109.05 23.0577C109.317 23.6764 109.681 24.2215 110.141 24.6905L110.591 24.2513C110.187 23.8392 109.865 23.3594 109.628 22.8094L109.05 23.0577ZM110.144 24.6927C110.604 25.1519 111.14 25.5193 111.75 25.795L112.01 25.2233C111.466 24.9776 110.994 24.6528 110.589 24.2489L110.144 24.6927ZM111.755 25.7974C112.382 26.0668 113.051 26.2006 113.759 26.2006V25.5729C113.133 25.5729 112.549 25.455 112.005 25.2209L111.755 25.7974ZM113.759 26.2006H118.016V25.5729H113.759V26.2006ZM118.016 26.2006C118.723 26.2006 119.388 26.0668 120.007 25.7967L119.755 25.2217C119.22 25.455 118.642 25.5729 118.016 25.5729V26.2006ZM120.009 25.7958C120.628 25.5202 121.17 25.1527 121.631 24.6927L121.186 24.2489C120.782 24.652 120.305 24.9767 119.753 25.2226L120.009 25.7958ZM121.633 24.6904C122.093 24.2214 122.458 23.6764 122.724 23.0577L122.147 22.8094C121.909 23.3594 121.588 23.8392 121.184 24.2513L121.633 24.6904ZM122.724 23.0577C122.994 22.4324 123.129 21.7652 123.129 21.0592H122.5C122.5 21.6837 122.381 22.266 122.147 22.8094L122.724 23.0577ZM131.369 28.6511V28.965H131.684V28.6511H131.369ZM128.599 28.6511H128.284V28.965H128.599V28.6511ZM128.599 13.4672V13.1533H128.284V13.4672H128.599ZM141.925 14.074L141.798 14.3612L141.8 14.3622L141.925 14.074ZM144.331 15.7057L144.107 15.9261L144.108 15.9276L144.331 15.7057ZM145.953 18.1195L145.663 18.2427L145.664 18.2437L145.953 18.1195ZM146.547 28.6511V28.965H146.862V28.6511H146.547ZM143.777 28.6511H143.462V28.965H143.777V28.6511ZM142.371 17.6609L142.146 17.8806L142.149 17.8829L142.371 17.6609ZM140.844 16.6226L140.714 16.9085L140.719 16.9108L140.844 16.6226ZM138.979 16.2181L138.983 15.9043H138.979V16.2181ZM131.369 16.2181V15.9043H131.055V16.2181H131.369ZM131.369 28.3373H128.599V28.965H131.369V28.3373ZM128.913 28.6511V13.4672H128.284V28.6511H128.913ZM128.599 13.781H138.979V13.1533H128.599V13.781ZM138.979 13.781C139.982 13.781 140.921 13.975 141.798 14.3612L142.052 13.7868C141.091 13.364 140.066 13.1533 138.979 13.1533V13.781ZM141.8 14.3622C142.683 14.7421 143.452 15.2634 144.107 15.9261L144.555 15.4852C143.841 14.7635 143.005 14.197 142.05 13.7858L141.8 14.3622ZM144.108 15.9276C144.764 16.5813 145.282 17.352 145.663 18.2427L146.242 17.9962C145.83 17.035 145.268 16.1965 144.553 15.4837L144.108 15.9276ZM145.664 18.2437C146.043 19.1198 146.233 20.0572 146.233 21.0592H146.862C146.862 19.9755 146.656 18.9531 146.242 17.9952L145.664 18.2437ZM146.233 21.0592V28.6511H146.862V21.0592H146.233ZM146.547 28.3373H143.777V28.965H146.547V28.3373ZM144.091 28.6511V21.0592H143.462V28.6511H144.091ZM144.091 21.0592C144.091 20.3532 143.957 19.686 143.688 19.0606L143.109 19.3089C143.344 19.8523 143.462 20.4346 143.462 21.0592H144.091ZM143.688 19.0606C143.42 18.4414 143.055 17.8998 142.594 17.4391L142.149 17.8829C142.552 18.2851 142.872 18.7595 143.109 19.3089L143.688 19.0606ZM142.596 17.4413C142.134 16.9708 141.59 16.6018 140.969 16.3344L140.719 16.9108C141.269 17.147 141.744 17.4701 142.146 17.8806L142.596 17.4413ZM140.974 16.3368C140.355 16.0573 139.691 15.9138 138.983 15.9043L138.974 16.5319C139.6 16.5403 140.179 16.6665 140.714 16.9085L140.974 16.3368ZM138.979 15.9043H131.369V16.5319H138.979V15.9043ZM131.055 16.2181V28.6511H131.684V16.2181H131.055ZM166.861 31.2267L166.574 31.0989L166.573 31.1026L166.861 31.2267ZM165.821 32.764L165.598 32.5421L165.596 32.5444L165.821 32.764ZM164.28 33.8023L164.157 33.5134L164.156 33.5141L164.28 33.8023ZM151.332 34.1799H151.018V34.4938H151.332V34.1799ZM151.332 31.4155V31.1017H151.018V31.4155H151.332ZM164.307 30.148L164.022 30.0158L164.02 30.0201L164.018 30.0243L164.307 30.148ZM164.483 16.2181H164.797V15.9043H164.483V16.2181ZM156.873 16.2181V15.9043L156.869 15.9043L156.873 16.2181ZM154.995 16.6226L155.121 16.9101L155.123 16.9093L154.995 16.6226ZM153.481 17.6609L153.703 17.8829L153.706 17.8806L153.481 17.6609ZM152.454 19.1848L152.165 19.0606L152.163 19.0644L152.454 19.1848ZM152.454 22.9335L152.163 23.054L152.166 23.0593L152.454 22.9335ZM153.481 24.4574L153.256 24.677L153.258 24.6793L153.481 24.4574ZM154.995 25.4957L154.865 25.7816L154.87 25.7839L154.995 25.4957ZM156.873 25.8867L156.869 26.2006H156.873V25.8867ZM163.104 25.8867H163.419V25.5729H163.104V25.8867ZM163.104 28.6511V28.965H163.419V28.6511H163.104ZM156.873 28.6511L156.871 28.965H156.873V28.6511ZM153.927 28.0443L153.8 28.3315L153.803 28.3325L153.927 28.0443ZM151.521 26.4127L151.296 26.6316L151.299 26.6345L151.521 26.4127ZM153.927 14.0875L154.052 14.3757L154.054 14.3746L153.927 14.0875ZM156.873 13.4672V13.1533H156.871L156.873 13.4672ZM167.253 13.4672H167.568V13.1533H167.253V13.4672ZM166.939 29.3389C166.939 29.9715 166.817 30.5569 166.574 31.0989L167.149 31.3546C167.429 30.7279 167.568 30.0548 167.568 29.3389H166.939ZM166.573 31.1026C166.335 31.6512 166.011 32.1303 165.598 32.5421L166.043 32.9859C166.513 32.5167 166.883 31.971 167.15 31.3509L166.573 31.1026ZM165.596 32.5444C165.194 32.954 164.715 33.2772 164.157 33.5134L164.403 34.0913C165.034 33.8241 165.582 33.4551 166.045 32.9836L165.596 32.5444ZM164.156 33.5141C163.611 33.7482 163.027 33.8661 162.401 33.8661V34.4938C163.109 34.4938 163.778 34.36 164.404 34.0906L164.156 33.5141ZM162.401 33.8661H151.332V34.4938H162.401V33.8661ZM151.647 34.1799V31.4155H151.018V34.1799H151.647ZM151.332 31.7294H162.401V31.1017H151.332V31.7294ZM162.401 31.7294C162.723 31.7294 163.03 31.6671 163.323 31.5422L163.075 30.9653C162.862 31.0561 162.639 31.1017 162.401 31.1017V31.7294ZM163.323 31.5422C163.611 31.419 163.865 31.2484 164.083 31.0307L163.638 30.5868C163.478 30.7466 163.291 30.8727 163.075 30.9653L163.323 31.5422ZM164.083 31.0307C164.302 30.8129 164.473 30.559 164.596 30.2716L164.018 30.0243C163.925 30.2403 163.799 30.427 163.638 30.5868L164.083 31.0307ZM164.592 30.2801C164.729 29.9855 164.797 29.6705 164.797 29.3389H164.168C164.168 29.5826 164.119 29.807 164.022 30.0158L164.592 30.2801ZM164.797 29.3389V16.2181H164.168V29.3389H164.797ZM164.483 15.9043H156.873V16.5319H164.483V15.9043ZM156.869 15.9043C156.161 15.9139 155.493 16.0573 154.866 16.336L155.123 16.9093C155.668 16.6666 156.252 16.5403 156.878 16.5319L156.869 15.9043ZM154.868 16.3351C154.256 16.6027 153.718 16.9716 153.256 17.4413L153.706 17.8806C154.11 17.4693 154.58 17.1461 155.121 16.9101L154.868 16.3351ZM153.258 17.4391C152.797 17.8998 152.432 18.4413 152.165 19.0606L152.743 19.3089C152.98 18.7595 153.3 18.2851 153.703 17.8829L153.258 17.4391ZM152.163 19.0644C151.903 19.6888 151.774 20.3547 151.774 21.0592H152.404C152.404 20.4331 152.517 19.8494 152.745 19.3052L152.163 19.0644ZM151.774 21.0592C151.774 21.7636 151.903 22.4295 152.163 23.054L152.745 22.8132C152.517 22.2689 152.404 21.6853 152.404 21.0592H151.774ZM152.166 23.0593C152.433 23.6689 152.797 24.2088 153.256 24.677L153.706 24.2378C153.301 23.8249 152.979 23.3489 152.742 22.8078L152.166 23.0593ZM153.258 24.6793C153.719 25.1384 154.255 25.5059 154.865 25.7816L155.124 25.2098C154.581 24.9641 154.108 24.6393 153.703 24.2354L153.258 24.6793ZM154.87 25.7839C155.496 26.0527 156.163 26.191 156.869 26.2006L156.878 25.5729C156.25 25.5645 155.665 25.4421 155.119 25.2074L154.87 25.7839ZM156.873 26.2006H163.104V25.5729H156.873V26.2006ZM162.79 25.8867V28.6511H163.419V25.8867H162.79ZM163.104 28.3373H156.873V28.965H163.104V28.3373ZM156.876 28.3373C155.871 28.3287 154.931 28.1344 154.052 27.7562L153.803 28.3325C154.761 28.7454 155.786 28.9556 156.871 28.965L156.876 28.3373ZM154.054 27.7572C153.169 27.3677 152.4 26.8455 151.744 26.1907L151.299 26.6345C152.012 27.3462 152.846 27.9118 153.8 28.3315L154.054 27.7572ZM151.747 26.1937C151.098 25.5298 150.584 24.7576 150.202 23.8745L149.624 24.1231C150.035 25.0741 150.592 25.911 151.296 26.6316L151.747 26.1937ZM150.202 23.8745C149.823 22.9986 149.632 22.0612 149.632 21.0592H149.003C149.003 22.1428 149.21 23.1652 149.624 24.1231L150.202 23.8745ZM149.632 21.0592C149.632 20.0572 149.823 19.1198 150.202 18.2437L149.624 17.9952C149.21 18.9531 149.003 19.9755 149.003 21.0592H149.632ZM150.202 18.2437C150.584 17.3611 151.098 16.594 151.745 15.9396L151.298 15.4987C150.593 16.2107 150.035 17.0438 149.624 17.9952L150.202 18.2437ZM151.745 15.9396C152.4 15.2769 153.169 14.7556 154.052 14.3757L153.803 13.7993C152.847 14.2105 152.012 14.777 151.298 15.4987L151.745 15.9396ZM154.054 14.3746C154.933 13.988 155.872 13.7896 156.876 13.781L156.871 13.1533C155.784 13.1627 154.76 13.3779 153.8 13.8003L154.054 14.3746ZM156.873 13.781H167.253V13.1533H156.873V13.781ZM166.939 13.4672V29.3389H167.568V13.4672H166.939Z" fill="#D1BA6A"/>
</g>
<g filter="url(#filter1_d_10_22777)">
<path d="M101.727 24.3776C101.727 25.1508 101.583 25.8744 101.295 26.5487C101.006 27.2139 100.61 27.7983 100.105 28.3017C99.6096 28.7961 99.0239 29.1872 98.3483 29.4749C97.6815 29.7625 96.9649 29.9064 96.1993 29.9064H80.7408C79.9774 29.9064 79.3586 29.2876 79.3586 28.5242C79.3586 27.7608 79.9774 27.142 80.7408 27.142H96.1993C96.5868 27.142 96.9473 27.0701 97.2807 26.9263C97.6141 26.7824 97.9023 26.5846 98.1457 26.3329C98.398 26.0812 98.5962 25.789 98.7402 25.4564C98.8843 25.1148 98.9566 24.7552 98.9566 24.3776C98.9566 24 98.8843 23.6449 98.7402 23.3123C98.5962 22.9797 98.398 22.6875 98.1457 22.4358C97.9023 22.1841 97.6141 21.9863 97.2807 21.8424C96.9473 21.6986 96.5868 21.6267 96.1993 21.6267H84.9002C84.1434 21.6267 83.4269 21.4828 82.7512 21.1952C82.0756 20.9075 81.4855 20.5164 80.981 20.022C80.4853 19.5186 80.0889 18.9297 79.7914 18.2555C79.5032 17.5812 79.3586 16.862 79.3586 16.0979C79.3586 15.3428 79.5032 14.628 79.7914 13.9538C80.0889 13.2796 80.4853 12.6952 80.981 12.2008C81.4855 11.6973 82.0756 11.3018 82.7512 11.0141C83.4269 10.7174 84.1434 10.5691 84.9002 10.5691H98.9666C99.73 10.5691 100.349 11.1879 100.349 11.9513C100.349 12.7147 99.73 13.3335 98.9666 13.3335H84.9002C84.5215 13.3335 84.1617 13.4054 83.8188 13.5493C83.4854 13.6931 83.1929 13.8909 82.9406 14.1426C82.6883 14.3943 82.4902 14.691 82.3455 15.0326C82.2014 15.3652 82.1297 15.7203 82.1297 16.0979C82.1297 16.4755 82.2014 16.8351 82.3455 17.1767C82.4902 17.5093 82.6883 17.8015 82.9406 18.0532C83.1929 18.3049 83.4854 18.5027 83.8188 18.6465C84.1617 18.7904 84.5215 18.8623 84.9002 18.8623H96.1993C96.9649 18.8623 97.6815 19.0106 98.3483 19.3073C99.0239 19.595 99.6096 19.9905 100.105 20.494C100.61 20.9884 101.006 21.5728 101.295 22.247C101.583 22.9123 101.727 23.6225 101.727 24.3776ZM123.055 22.3144C123.055 23.3573 122.856 24.3372 122.46 25.2541C122.064 26.1711 121.523 26.9757 120.838 27.6679C120.163 28.3511 119.365 28.8951 118.446 29.2996C117.527 29.6951 116.545 29.8974 115.5 29.9064H111.242C110.197 29.8974 109.215 29.6951 108.295 29.2996C107.377 28.8951 106.575 28.3511 105.89 27.6679C105.214 26.9757 104.678 26.1711 104.282 25.2541C103.885 24.3372 103.687 23.3573 103.687 22.3144C103.687 21.2716 103.885 20.2917 104.282 19.3747C104.678 18.4487 105.214 17.6441 105.89 16.9609C106.575 16.2687 107.377 15.7248 108.295 15.3293C109.215 14.9247 110.197 14.7224 111.242 14.7224H115.5C116.194 14.7224 116.865 14.8123 117.514 14.9921C118.162 15.1719 118.766 15.4281 119.325 15.7608C119.883 16.0934 120.392 16.4934 120.852 16.9609C121.311 17.4194 121.703 17.9319 122.028 18.4982C122.352 19.0556 122.604 19.6579 122.785 20.3052C122.965 20.9525 123.055 21.6222 123.055 22.3144ZM120.298 22.3144C120.298 21.6492 120.171 21.0244 119.919 20.44C119.667 19.8557 119.325 19.3477 118.892 18.9162C118.46 18.4757 117.95 18.1296 117.364 17.8779C116.788 17.6172 116.167 17.4823 115.5 17.4733H111.242C110.575 17.4823 109.949 17.6172 109.364 17.8779C108.787 18.1296 108.282 18.4757 107.85 18.9162C107.417 19.3477 107.075 19.8557 106.823 20.44C106.579 21.0244 106.458 21.6492 106.458 22.3144C106.458 22.9797 106.579 23.6045 106.823 24.1888C107.075 24.7732 107.417 25.2856 107.85 25.7261C108.282 26.1576 108.787 26.5037 109.364 26.7644C109.949 27.0162 110.575 27.142 111.242 27.142H115.5C116.167 27.142 116.788 27.0162 117.364 26.7644C117.95 26.5037 118.46 26.1576 118.892 25.7261C119.325 25.2856 119.667 24.7732 119.919 24.1888C120.171 23.6045 120.298 22.9797 120.298 22.3144ZM128.853 28.5211C128.853 29.2862 128.233 29.9064 127.468 29.9064C126.703 29.9064 126.082 29.2862 126.082 28.5211V22.3144C126.082 18.1215 129.481 14.7224 133.674 14.7224H136.462C137.507 14.7224 138.49 14.9247 139.409 15.3293C140.328 15.7248 141.13 16.2687 141.815 16.9609C142.499 17.6441 143.04 18.4487 143.436 19.3747C143.833 20.2917 144.031 21.2716 144.031 22.3144V28.5211C144.031 29.2862 143.411 29.9064 142.646 29.9064C141.881 29.9064 141.26 29.2862 141.26 28.5211V22.3144C141.26 21.6492 141.134 21.0244 140.882 20.44C140.629 19.8557 140.287 19.3477 139.854 18.9162C139.422 18.4757 138.913 18.1296 138.328 17.8779C137.751 17.6172 137.129 17.4823 136.462 17.4733H135.069C131.636 17.4733 128.853 20.2566 128.853 23.6899V28.5211ZM164.737 30.5941C164.737 31.2684 164.607 31.8977 164.345 32.482C164.093 33.0664 163.746 33.5788 163.304 34.0193C162.872 34.4598 162.358 34.8059 161.764 35.0576C161.178 35.3094 160.552 35.4352 159.885 35.4352H150.198C149.435 35.4352 148.816 34.8164 148.816 34.053C148.816 33.2896 149.435 32.6708 150.198 32.6708H159.885C160.164 32.6708 160.43 32.6169 160.682 32.509C160.935 32.4011 161.155 32.2528 161.345 32.064C161.534 31.8752 161.683 31.6549 161.791 31.4032C161.908 31.1515 161.966 30.8818 161.966 30.5941V25.0828C161.966 20.8802 158.559 17.4733 154.357 17.4733C153.69 17.4823 153.064 17.6172 152.478 17.8779C151.902 18.1296 151.397 18.4757 150.965 18.9162C150.532 19.3477 150.19 19.8557 149.938 20.44C149.694 21.0244 149.573 21.6492 149.573 22.3144C149.573 22.9797 149.694 23.6045 149.938 24.1888C150.19 24.7642 150.532 25.2721 150.965 25.7126C151.397 26.1442 151.902 26.4902 152.478 26.751C153.064 27.0027 153.69 27.133 154.357 27.142H159.206C159.969 27.142 160.588 27.7608 160.588 28.5242C160.588 29.2876 159.969 29.9064 159.206 29.9064H154.357C153.312 29.8974 152.33 29.6951 151.411 29.2996C150.492 28.8951 149.69 28.3511 149.005 27.6679C148.329 26.9757 147.793 26.1711 147.397 25.2541C147 24.3372 146.802 23.3573 146.802 22.3144C146.802 21.2716 147 20.2917 147.397 19.3747C147.793 18.4578 148.329 17.6576 149.005 16.9744C149.69 16.2822 150.492 15.7383 151.411 15.3428C152.33 14.9382 153.312 14.7314 154.357 14.7224C155.639 14.7224 156.279 14.7224 156.818 14.7876C160.932 15.2854 164.174 18.5276 164.672 22.6412C164.737 23.1799 164.737 23.8207 164.737 25.1024V30.5941Z" fill="#F7F6FF"/>
</g>
<path d="M105.716 48.7878L105.938 49.0097L105.94 49.0083L105.716 48.7878ZM103.747 50.1228L103.872 50.411L103.874 50.4099L103.747 50.1228ZM101.336 50.6193V50.9331H101.339L101.336 50.6193ZM92.8438 50.9331C92.8438 50.7598 92.7025 50.6193 92.5292 50.6193C92.5292 50.7926 92.6704 50.9331 92.8438 50.9331ZM92.5292 33.6725C92.7025 33.6725 92.8438 33.532 92.8438 33.3586C92.6704 33.3586 92.5292 33.4991 92.5292 33.6725ZM95.111 33.3586C95.111 33.532 95.2522 33.6725 95.4255 33.6725C95.4255 33.4991 95.2843 33.3586 95.111 33.3586ZM95.111 48.6713C95.111 48.498 94.9698 48.3575 94.7965 48.3575C94.7965 48.5308 94.9377 48.6713 95.111 48.6713ZM102.863 48.0486L102.988 48.3361L102.99 48.3352L102.863 48.0486ZM104.112 47.199L104.335 47.421L104.337 47.4187L104.112 47.199ZM104.112 41.6273L103.887 41.8469L103.89 41.8492L104.112 41.6273ZM102.863 40.7778L102.732 41.0637L102.738 41.066L102.863 40.7778ZM101.336 40.4468L101.341 40.133H101.336V40.4468ZM96.2496 40.7606C96.2496 40.5873 96.1084 40.4468 95.9351 40.4468C95.9351 40.6201 96.0763 40.7606 96.2496 40.7606ZM95.9351 38.196C96.1084 38.196 96.2496 38.0555 96.2496 37.8822C96.0763 37.8822 95.9351 38.0227 95.9351 38.196ZM103.747 38.6925L103.62 38.9796L103.623 38.9807L103.747 38.6925ZM105.716 40.0275L105.492 40.248L105.493 40.2495L105.716 40.0275ZM107.042 42.0025L106.753 42.1257L106.754 42.1267L107.042 42.0025ZM107.215 44.4076C107.215 45.2201 107.061 45.9793 106.754 46.6886L107.331 46.9372C107.673 46.146 107.844 45.3017 107.844 44.4076H107.215ZM106.754 46.6886C106.53 47.2051 106.249 47.6747 105.91 48.0983C105.693 48.369 105.692 48.7649 105.94 49.0083C106.528 48.4134 106.992 47.7223 107.331 46.9372L106.754 46.6886ZM105.938 49.0097C105.692 48.7645 105.296 48.7675 105.026 48.9856C104.763 49.1973 104.482 49.3874 104.182 49.5557C103.88 49.7252 103.734 50.0929 103.874 50.4099C104.661 50.0639 105.349 49.5972 105.938 49.0097ZM103.872 50.411C103.734 50.0925 103.365 49.9494 103.033 50.0507C102.687 50.1564 102.329 50.2293 101.96 50.2693C101.616 50.3067 101.336 50.5864 101.339 50.9331C102.234 50.9254 103.08 50.7519 103.872 50.411ZM101.336 50.9331C101.336 50.5865 101.055 50.3055 100.709 50.3055H93.4714C93.1248 50.3055 92.8438 50.5865 92.8438 50.9331H101.336ZM92.5292 50.6193C92.8766 50.6193 93.1583 50.3376 93.1583 49.9902V34.3016C93.1583 33.9541 92.8766 33.6725 92.5292 33.6725V50.6193ZM92.8438 33.3586C92.8438 33.7053 93.1248 33.9863 93.4714 33.9863H94.4833C94.83 33.9863 95.111 33.7053 95.111 33.3586H92.8438ZM95.4255 33.6725C95.0781 33.6725 94.7965 33.9541 94.7965 34.3016V48.3575C95.1439 48.3575 95.4255 48.0759 95.4255 47.7284V33.6725ZM95.111 48.6713H101.336V48.0437H95.7387C95.392 48.0437 95.111 48.3247 95.111 48.6713ZM101.336 48.6713C101.923 48.6713 102.475 48.5604 102.988 48.3361C102.849 48.0183 102.479 47.8798 102.14 47.9564C101.884 48.0145 101.616 48.0437 101.336 48.0437V48.6713ZM102.99 48.3352C103.503 48.107 103.952 47.8025 104.335 47.421C104.089 47.1756 103.693 47.1806 103.409 47.3807C103.369 47.4092 103.328 47.437 103.286 47.464C102.995 47.6524 102.849 48.0187 102.99 48.3352ZM104.337 47.4187C104.718 47.0298 105.02 46.5778 105.241 46.0654L104.664 45.8171C104.558 46.0605 104.433 46.2867 104.288 46.4962C104.09 46.781 104.089 47.1762 104.337 47.4187ZM105.241 46.0654C105.465 45.5463 105.577 44.9927 105.577 44.4076H104.947C104.947 44.9112 104.852 45.38 104.664 45.8171L105.241 46.0654ZM105.577 44.4076C105.577 43.8227 105.465 43.269 105.241 42.7499L104.664 42.9982C104.852 43.4353 104.947 43.9041 104.947 44.4076H105.577ZM105.241 42.7499C105.106 42.4361 104.94 42.1463 104.744 41.881C104.538 41.6016 104.136 41.604 103.89 41.8492C104.214 42.173 104.472 42.555 104.664 42.9982L105.241 42.7499ZM103.887 41.8469C104.135 41.6045 104.142 41.2022 103.864 40.9944C103.761 40.9174 103.655 40.8451 103.545 40.7776C103.249 40.5963 102.876 40.7475 102.738 41.066C103.181 41.2564 103.563 41.5166 103.887 41.8469ZM102.732 41.0637C102.876 40.7481 102.736 40.3707 102.402 40.2793C102.063 40.1865 101.709 40.1379 101.341 40.133C101.336 40.4795 101.615 40.7578 101.956 40.8208C102.227 40.871 102.485 40.952 102.732 41.0637ZM101.336 40.133H96.8773C96.5307 40.133 96.2496 40.414 96.2496 40.7606H100.709C101.055 40.7606 101.336 40.4796 101.336 40.133ZM95.9351 40.4468C96.2825 40.4468 96.5642 40.1651 96.5642 39.8177V38.8251C96.5642 38.4777 96.2825 38.196 95.9351 38.196V40.4468ZM96.2496 37.8822C96.2496 38.2288 96.5307 38.5098 96.8773 38.5098H101.336V37.8822H96.2496ZM101.336 38.5098C102.15 38.5098 102.91 38.667 103.62 38.9796C103.76 38.6627 103.617 38.2887 103.288 38.1823C102.667 37.982 102.016 37.8822 101.336 37.8822V38.5098ZM103.623 38.9807C104.339 39.2888 104.961 39.7111 105.492 40.248C105.739 40.0047 105.743 39.6041 105.477 39.3825C105.155 39.1154 104.808 38.8807 104.436 38.6784C104.132 38.5126 103.76 38.6622 103.623 38.9807ZM105.493 40.2495C106.024 40.779 106.444 41.4034 106.753 42.1257C107.072 41.9897 107.223 41.6183 107.059 41.3127C106.857 40.9396 106.624 40.5921 106.36 40.2705C106.139 40.0022 105.739 40.0042 105.493 40.2495ZM106.754 42.1267C107.061 42.836 107.215 43.5953 107.215 44.4076H107.844C107.844 43.7318 107.746 43.0844 107.551 42.4669C107.446 42.1356 107.073 41.9894 106.754 42.1267ZM124.486 50.6193C124.313 50.6193 124.172 50.7598 124.172 50.9331C124.345 50.9331 124.486 50.7926 124.486 50.6193ZM110.039 49.4719L109.817 49.6937L109.819 49.6961L110.039 49.4719ZM109.188 48.2141L108.898 48.3366L108.899 48.3382L109.188 48.2141ZM120.766 42.3947C120.766 42.5681 120.907 42.7086 121.08 42.7086C121.08 42.5353 120.939 42.3947 120.766 42.3947ZM121.08 44.9703C120.907 44.9703 120.766 45.1109 120.766 45.2842C120.939 45.2842 121.08 45.1437 121.08 44.9703ZM112.185 45.1138L112.308 45.4022L112.313 45.4004L112.317 45.3984L112.185 45.1138ZM111.278 47.3314L110.989 47.4551L110.991 47.4589L111.278 47.3314ZM122.219 48.3575C122.046 48.3575 121.905 48.498 121.905 48.6713C122.078 48.6713 122.219 48.5308 122.219 48.3575ZM121.761 41.4949L121.472 41.6186L121.474 41.6228L121.476 41.6271L121.761 41.4949ZM120.854 40.5902L120.722 40.8749L120.726 40.8768L120.73 40.8787L120.854 40.5902ZM111.145 40.7606C111.145 40.5873 111.004 40.4468 110.831 40.4468C110.831 40.6201 110.972 40.7606 111.145 40.7606ZM110.831 38.196C111.004 38.196 111.145 38.0555 111.145 37.8822C110.972 37.8822 110.831 38.0227 110.831 38.196ZM123.011 39.3545L122.788 39.5764L122.79 39.5787L123.011 39.3545ZM124.172 50.9331C124.172 50.5865 123.891 50.3055 123.544 50.3055H112.848V50.9331H124.172ZM112.848 50.3055C112.336 50.3055 111.862 50.2102 111.425 50.0221L111.175 50.5986C111.696 50.8224 112.255 50.9331 112.848 50.9331V50.3055ZM111.425 50.0221C111.181 49.9172 110.954 49.7922 110.744 49.647C110.458 49.4494 110.063 49.4482 109.819 49.6961C110.209 50.077 110.662 50.3778 111.175 50.5986L111.425 50.0221ZM109.817 49.6937C110.062 49.4489 110.057 49.0535 109.857 48.7702C109.828 48.729 109.799 48.6872 109.772 48.6448C109.584 48.3528 109.218 48.2011 108.899 48.3382C109.121 48.852 109.427 49.3046 109.817 49.6937ZM108.898 48.3366C109.218 48.2013 109.361 47.8324 109.284 47.4939C109.223 47.2284 109.193 46.9538 109.193 46.6694H108.563C108.563 47.2545 108.675 47.8111 108.898 48.3366ZM109.193 46.6694C109.193 46.1579 109.288 45.6856 109.477 45.249L108.899 45.0007C108.675 45.5203 108.563 46.0777 108.563 46.6694H109.193ZM109.477 45.249C109.668 44.8066 109.929 44.4206 110.262 44.0889L109.817 43.6451C109.427 44.0343 109.121 44.4869 108.899 45.0007L109.477 45.249ZM110.262 44.0889C110.594 43.7572 110.981 43.4963 111.425 43.3057L111.175 42.7293C110.66 42.9506 110.207 43.256 109.817 43.6451L110.262 44.0889ZM111.425 43.3057C111.862 43.1177 112.336 43.0224 112.848 43.0224V42.3947C112.255 42.3947 111.696 42.5054 111.175 42.7293L111.425 43.3057ZM112.848 43.0224H120.138C120.485 43.0224 120.766 42.7414 120.766 42.3947H112.848V43.0224ZM121.08 42.7086C120.733 42.7086 120.451 42.9902 120.451 43.3377V44.3413C120.451 44.6887 120.733 44.9703 121.08 44.9703V42.7086ZM120.766 45.2842C120.766 44.9375 120.485 44.6565 120.138 44.6565H112.848V45.2842H120.766ZM112.848 44.6565C112.783 44.6565 112.719 44.6596 112.656 44.6657C112.311 44.6992 112.171 45.0841 112.317 45.3984C112.48 45.3227 112.656 45.2842 112.848 45.2842V44.6565ZM112.308 45.4022C112.172 45.0835 111.792 44.9286 111.529 45.155C111.492 45.1872 111.455 45.2208 111.42 45.2559L111.865 45.6997C111.991 45.5743 112.138 45.4752 112.308 45.4022ZM111.42 45.2559C111.236 45.4394 111.092 45.6532 110.989 45.8949L111.567 46.1421C111.64 45.9719 111.739 45.8253 111.865 45.6997L111.42 45.2559ZM110.989 45.8949C110.883 46.1406 110.831 46.3997 110.831 46.6694H111.46C111.46 46.4831 111.496 46.3083 111.567 46.1421L110.989 45.8949ZM110.831 46.6694C110.831 46.9452 110.883 47.2081 110.989 47.4551L111.059 47.4252C111.339 47.3051 111.46 46.9747 111.46 46.6694H110.831ZM110.991 47.4589C111.094 47.6929 111.238 47.9014 111.42 48.0829L111.865 47.6391C111.657 47.4319 111.348 47.3004 111.08 47.4193L110.991 47.4589ZM111.42 48.0829C111.604 48.2664 111.818 48.41 112.061 48.5135L112.308 47.9367C112.138 47.8637 111.991 47.7646 111.865 47.6391L111.42 48.0829ZM112.061 48.5135C112.308 48.6194 112.572 48.6713 112.848 48.6713V48.0437C112.653 48.0437 112.474 48.0073 112.308 47.9367L112.061 48.5135ZM112.848 48.6713H121.905C121.905 48.3247 121.624 48.0437 121.277 48.0437H112.848V48.6713ZM122.219 48.3575V42.1459H121.59V47.7284C121.59 48.0759 121.872 48.3575 122.219 48.3575ZM122.219 42.1459C122.219 42.0855 122.216 42.0257 122.211 41.9665C122.178 41.6206 121.791 41.481 121.476 41.6271C121.552 41.7914 121.59 41.9633 121.59 42.1459H122.219ZM121.472 41.6186C121.791 41.4821 121.946 41.1023 121.718 40.8399C121.687 40.803 121.653 40.7671 121.618 40.7324L121.174 41.1762C121.299 41.3017 121.399 41.4484 121.472 41.6186ZM121.618 40.7324C121.583 40.6973 121.547 40.6636 121.509 40.6314C121.247 40.4051 120.867 40.5599 120.73 40.8787C120.901 40.9516 121.048 41.0507 121.174 41.1762L121.618 40.7324ZM120.722 40.8749C120.868 40.5606 120.729 40.1746 120.384 40.1416C120.324 40.1359 120.263 40.133 120.202 40.133V40.7606C120.385 40.7606 120.557 40.7985 120.722 40.8749ZM120.202 40.133H111.773C111.426 40.133 111.145 40.414 111.145 40.7606H120.202V40.133ZM110.831 40.4468C111.178 40.4468 111.46 40.1651 111.46 39.8177V38.8251C111.46 38.4777 111.178 38.196 110.831 38.196V40.4468ZM111.145 37.8822C111.145 38.2288 111.426 38.5098 111.773 38.5098H120.202V37.8822H111.145ZM120.202 38.5098C120.714 38.5098 121.188 38.6051 121.625 38.7932L121.874 38.2167C121.354 37.9929 120.795 37.8822 120.202 37.8822V38.5098ZM121.625 38.7932C122.069 38.9838 122.456 39.2447 122.788 39.5764C123.034 39.3315 123.036 38.9293 122.758 38.7227C122.487 38.5221 122.193 38.3534 121.874 38.2167L121.625 38.7932ZM122.79 39.5787C123.121 39.9023 123.382 40.2835 123.573 40.7254L124.151 40.4771C124.015 40.1608 123.846 39.8688 123.645 39.6019C123.436 39.3243 123.034 39.3309 122.79 39.5787ZM123.573 40.7254C123.762 41.162 123.857 41.6343 123.857 42.1459H124.486C124.486 41.5541 124.375 40.9967 124.151 40.4771L123.573 40.7254ZM123.857 42.1459V49.9902C123.857 50.3376 124.139 50.6193 124.486 50.6193V42.1459H123.857ZM140.034 40.4468C139.861 40.4468 139.72 40.5873 139.72 40.7606C139.893 40.7606 140.034 40.6201 140.034 40.4468ZM130.563 40.5902L130.687 40.8787L130.692 40.8768L130.696 40.8749L130.563 40.5902ZM129.839 50.6193C129.665 50.6193 129.524 50.7598 129.524 50.9331C129.697 50.9331 129.839 50.7926 129.839 50.6193ZM127.257 50.9331C127.257 50.7598 127.116 50.6193 126.942 50.6193C126.942 50.7926 127.084 50.9331 127.257 50.9331ZM128.418 39.3545L128.638 39.5787L128.64 39.5764L128.418 39.3545ZM139.72 37.8822C139.72 38.0555 139.861 38.196 140.034 38.196C140.034 38.0227 139.893 37.8822 139.72 37.8822ZM139.72 40.7606C139.72 40.414 139.439 40.133 139.092 40.133H131.227V40.7606H139.72ZM131.227 40.133C131.162 40.133 131.098 40.1361 131.034 40.1422C130.689 40.1758 130.55 40.5607 130.696 40.8749C130.859 40.7992 131.035 40.7606 131.227 40.7606V40.133ZM130.687 40.8787C130.55 40.5599 130.171 40.4051 129.908 40.6314C129.871 40.6636 129.834 40.6973 129.799 40.7324L130.244 41.1762C130.37 41.0507 130.517 40.9516 130.687 40.8787ZM129.799 40.7324C129.615 40.9158 129.471 41.1296 129.368 41.3713L129.946 41.6186C130.019 41.4484 130.118 41.3017 130.244 41.1762L129.799 40.7324ZM129.368 41.3713C129.262 41.617 129.21 41.8761 129.21 42.1459H129.839C129.839 41.9596 129.875 41.7847 129.946 41.6186L129.368 41.3713ZM129.21 42.1459V49.9902C129.21 50.3376 129.491 50.6193 129.839 50.6193V42.1459H129.21ZM129.524 50.9331C129.524 50.5865 129.243 50.3055 128.896 50.3055H127.885C127.538 50.3055 127.257 50.5865 127.257 50.9331H129.524ZM126.942 50.6193C127.29 50.6193 127.571 50.3376 127.571 49.9902V42.1459H126.942V50.6193ZM127.571 42.1459C127.571 41.6343 127.667 41.162 127.856 40.7254L127.278 40.4771C127.053 40.9967 126.942 41.5541 126.942 42.1459H127.571ZM127.856 40.7254C128.046 40.2835 128.307 39.9023 128.638 39.5787C128.395 39.3309 127.992 39.3243 127.784 39.6019C127.583 39.8688 127.414 40.1608 127.278 40.4771L127.856 40.7254ZM128.64 39.5764C128.973 39.2447 129.36 38.9838 129.803 38.7932L129.554 38.2167C129.236 38.3534 128.942 38.5221 128.671 38.7227C128.392 38.9293 128.395 39.3315 128.64 39.5764ZM129.803 38.7932C130.241 38.6051 130.714 38.5098 131.227 38.5098V37.8822C130.634 37.8822 130.075 37.9929 129.554 38.2167L129.803 38.7932ZM131.227 38.5098H139.092C139.439 38.5098 139.72 38.2288 139.72 37.8822H131.227V38.5098ZM140.034 38.196C139.687 38.196 139.405 38.4777 139.405 38.8251V39.8177C139.405 40.1651 139.687 40.4468 140.034 40.4468V38.196Z" fill="#F5D771"/>
</g>
<defs>
<filter id="filter0_d_10_22777" x="77.1604" y="4.6" width="98.8074" height="38.2939" filterUnits="userSpaceOnUse" color-interpolation-filters="sRGB">
<feFlood flood-opacity="0" result="BackgroundImageFix"/>
<feColorMatrix in="SourceAlpha" type="matrix" values="0 0 0 0 0 0 0 0 0 0 0 0 0 0 0 0 0 0 127 0" result="hardAlpha"/>
<feOffset dx="2" dy="2"/>
<feGaussianBlur stdDeviation="3.2"/>
<feComposite in2="hardAlpha" operator="out"/>
<feColorMatrix type="matrix" values="0 0 0 0 0 0 0 0 0 0 0 0 0 0 0 0 0 0 0.42 0"/>
<feBlend mode="normal" in2="BackgroundImageFix" result="effect1_dropShadow_10_22777"/>
<feBlend mode="normal" in="SourceGraphic" in2="effect1_dropShadow_10_22777" result="shape"/>
</filter>
<filter id="filter1_d_10_22777" x="74.9586" y="6.16909" width="98.1783" height="37.6662" filterUnits="userSpaceOnUse" color-interpolation-filters="sRGB">
<feFlood flood-opacity="0" result="BackgroundImageFix"/>
<feColorMatrix in="SourceAlpha" type="matrix" values="0 0 0 0 0 0 0 0 0 0 0 0 0 0 0 0 0 0 127 0" result="hardAlpha"/>
<feOffset dx="2" dy="2"/>
<feGaussianBlur stdDeviation="3.2"/>
<feComposite in2="hardAlpha" operator="out"/>
<feColorMatrix type="matrix" values="0 0 0 0 0 0 0 0 0 0 0 0 0 0 0 0 0 0 0.42 0"/>
<feBlend mode="normal" in2="BackgroundImageFix" result="effect1_dropShadow_10_22777"/>
<feBlend mode="normal" in="SourceGraphic" in2="effect1_dropShadow_10_22777" result="shape"/>
</filter>
<linearGradient id="paint0_linear_10_22777" x1="nan" y1="nan" x2="nan" y2="nan" gradientUnits="userSpaceOnUse">
<stop stop-color="#E7CE75"/>
<stop offset="0.38" stop-color="#817341"/>
<stop offset="1" stop-color="#7D681C"/>
</linearGradient>
<linearGradient id="paint1_linear_10_22777" x1="nan" y1="nan" x2="nan" y2="nan" gradientUnits="userSpaceOnUse">
<stop stop-color="#E7CE75"/>
<stop offset="0.38" stop-color="#817341"/>
<stop offset="1" stop-color="#7D681C"/>
</linearGradient>
<linearGradient id="paint2_linear_10_22777" x1="nan" y1="nan" x2="nan" y2="nan" gradientUnits="userSpaceOnUse">
<stop stop-color="#E7CE75"/>
<stop offset="0.38" stop-color="#817341"/>
<stop offset="1" stop-color="#7D681C"/>
</linearGradient>
<linearGradient id="paint3_linear_10_22777" x1="nan" y1="nan" x2="nan" y2="nan" gradientUnits="userSpaceOnUse">
<stop stop-color="#E7CE75"/>
<stop offset="0.38" stop-color="#817341"/>
<stop offset="1" stop-color="#7D681C"/>
</linearGradient>
<linearGradient id="paint4_linear_10_22777" x1="nan" y1="nan" x2="nan" y2="nan" gradientUnits="userSpaceOnUse">
<stop stop-color="#E7CE75"/>
<stop offset="0.38" stop-color="#817341"/>
<stop offset="1" stop-color="#7D681C"/>
</linearGradient>
<linearGradient id="paint5_linear_10_22777" x1="nan" y1="nan" x2="nan" y2="nan" gradientUnits="userSpaceOnUse">
<stop stop-color="#E7CE75"/>
<stop offset="0.38" stop-color="#817341"/>
<stop offset="1" stop-color="#7D681C"/>
</linearGradient>
<linearGradient id="paint6_linear_10_22777" x1="nan" y1="nan" x2="nan" y2="nan" gradientUnits="userSpaceOnUse">
<stop stop-color="#E7CE75"/>
<stop offset="0.38" stop-color="#817341"/>
<stop offset="1" stop-color="#7D681C"/>
</linearGradient>
<linearGradient id="paint7_linear_10_22777" x1="nan" y1="nan" x2="nan" y2="nan" gradientUnits="userSpaceOnUse">
<stop stop-color="#E7CE75"/>
<stop offset="0.38" stop-color="#817341"/>
<stop offset="1" stop-color="#7D681C"/>
</linearGradient>
<linearGradient id="paint8_linear_10_22777" x1="nan" y1="nan" x2="nan" y2="nan" gradientUnits="userSpaceOnUse">
<stop stop-color="#E7CE75"/>
<stop offset="0.38" stop-color="#817341"/>
<stop offset="1" stop-color="#7D681C"/>
</linearGradient>
<clipPath id="clip0_10_22777">
<rect width="173" height="59" fill="white"/>
</clipPath>
</defs>
</svg>
